<svg width="89" height="78" viewBox="0 0 89 78" fill="none" xmlns="http://www.w3.org/2000/svg">
<g id="Group 11" opacity="0.8">
<g id="Rectangle 32" filter="url(#filter0_dd_3_678)">
<rect x="15" y="4" width="59" height="59" rx="10" fill="#3F4349"/>
</g>
<path id="Vector" d="M40.0946 21.606V19.2016C40.0946 18.989 40.1858 18.7852 40.3481 18.6349C40.5104 18.4846 40.7305 18.4001 40.96 18.4001C41.1895 18.4001 41.4096 18.4846 41.5719 18.6349C41.7341 18.7852 41.8253 18.989 41.8253 19.2016V21.606C41.8253 21.8185 41.7341 22.0224 41.5719 22.1727C41.4096 22.323 41.1895 22.4074 40.96 22.4074C40.7305 22.4074 40.5104 22.323 40.3481 22.1727C40.1858 22.0224 40.0946 21.8185 40.0946 21.606ZM47.8826 30.422C47.8826 31.6901 47.4766 32.9297 46.716 33.9841C45.9553 35.0385 44.8741 35.8603 43.6092 36.3455C42.3442 36.8308 40.9523 36.9578 39.6094 36.7104C38.2666 36.463 37.0331 35.8524 36.0649 34.9557C35.0968 34.059 34.4374 32.9165 34.1703 31.6728C33.9032 30.4291 34.0403 29.1399 34.5643 27.9683C35.0882 26.7968 35.9755 25.7954 37.114 25.0909C38.2524 24.3864 39.5908 24.0103 40.96 24.0103C42.7954 24.0122 44.555 24.6883 45.8528 25.8903C47.1507 27.0923 47.8806 28.7221 47.8826 30.422ZM46.152 30.422C46.152 29.4709 45.8475 28.5412 45.277 27.7504C44.7065 26.9596 43.8956 26.3432 42.9469 25.9793C41.9982 25.6153 40.9542 25.5201 39.9471 25.7056C38.9399 25.8912 38.0148 26.3492 37.2887 27.0217C36.5626 27.6942 36.0681 28.551 35.8677 29.4838C35.6674 30.4166 35.7702 31.3835 36.1632 32.2622C36.5562 33.1409 37.2216 33.8919 38.0755 34.4203C38.9293 34.9487 39.9331 35.2307 40.96 35.2307C42.3365 35.2294 43.6563 34.7223 44.6297 33.8208C45.6031 32.9193 46.1505 31.6969 46.152 30.422ZM33.4251 24.5774C33.5875 24.7277 33.8077 24.8122 34.0373 24.8122C34.2669 24.8122 34.4872 24.7277 34.6495 24.5774C34.8119 24.427 34.9031 24.223 34.9031 24.0103C34.9031 23.7976 34.8119 23.5937 34.6495 23.4433L32.9189 21.8404C32.7565 21.69 32.5363 21.6055 32.3066 21.6055C32.077 21.6055 31.8568 21.69 31.6944 21.8404C31.5321 21.9908 31.4408 22.1947 31.4408 22.4074C31.4408 22.6201 31.5321 22.8241 31.6944 22.9744L33.4251 24.5774ZM33.4251 36.2666L31.6944 37.8695C31.5321 38.0199 31.4408 38.2238 31.4408 38.4365C31.4408 38.6492 31.5321 38.8531 31.6944 39.0035C31.8568 39.1539 32.077 39.2384 32.3066 39.2384C32.5363 39.2384 32.7565 39.1539 32.9189 39.0035L34.6495 37.4006C34.7299 37.3262 34.7937 37.2378 34.8372 37.1405C34.8807 37.0432 34.9031 36.9389 34.9031 36.8336C34.9031 36.7283 34.8807 36.624 34.8372 36.5267C34.7937 36.4294 34.7299 36.341 34.6495 36.2666C34.5691 36.1921 34.4737 36.133 34.3686 36.0927C34.2636 36.0524 34.151 36.0317 34.0373 36.0317C33.9236 36.0317 33.811 36.0524 33.706 36.0927C33.6009 36.133 33.5055 36.1921 33.4251 36.2666ZM47.8826 24.8118C47.9963 24.8119 48.1089 24.7912 48.2139 24.751C48.319 24.7108 48.4144 24.6518 48.4949 24.5774L50.2255 22.9744C50.3879 22.8241 50.4791 22.6201 50.4791 22.4074C50.4791 22.1947 50.3879 21.9908 50.2255 21.8404C50.0632 21.69 49.8429 21.6055 49.6133 21.6055C49.3837 21.6055 49.1635 21.69 49.0011 21.8404L47.2704 23.4433C47.1493 23.5554 47.0667 23.6982 47.0333 23.8538C46.9999 24.0093 47.017 24.1706 47.0825 24.3171C47.1481 24.4636 47.2591 24.5889 47.4015 24.6769C47.544 24.765 47.7114 24.8119 47.8826 24.8118ZM48.4949 36.2666C48.3325 36.1162 48.1123 36.0317 47.8826 36.0317C47.653 36.0317 47.4328 36.1162 47.2704 36.2666C47.1081 36.4169 47.0168 36.6209 47.0168 36.8336C47.0168 37.0463 47.1081 37.2502 47.2704 37.4006L49.0011 39.0035C49.0815 39.078 49.1769 39.1371 49.282 39.1774C49.387 39.2177 49.4996 39.2384 49.6133 39.2384C49.727 39.2384 49.8396 39.2177 49.9446 39.1774C50.0497 39.1371 50.1451 39.078 50.2255 39.0035C50.3059 38.9291 50.3697 38.8407 50.4132 38.7434C50.4567 38.6461 50.4791 38.5418 50.4791 38.4365C50.4791 38.3312 50.4567 38.2269 50.4132 38.1296C50.3697 38.0323 50.3059 37.9439 50.2255 37.8695L48.4949 36.2666ZM32.3066 30.422C32.3066 30.2094 32.2155 30.0055 32.0532 29.8552C31.8909 29.7049 31.6708 29.6205 31.4413 29.6205H28.8453C28.6158 29.6205 28.3957 29.7049 28.2334 29.8552C28.0711 30.0055 27.98 30.2094 27.98 30.422C27.98 30.6345 28.0711 30.8384 28.2334 30.9887C28.3957 31.139 28.6158 31.2234 28.8453 31.2234H31.4413C31.6708 31.2234 31.8909 31.139 32.0532 30.9887C32.2155 30.8384 32.3066 30.6345 32.3066 30.422ZM40.96 38.4365C40.7305 38.4365 40.5104 38.5209 40.3481 38.6712C40.1858 38.8215 40.0946 39.0254 40.0946 39.238V41.6423C40.0946 41.8549 40.1858 42.0587 40.3481 42.209C40.5104 42.3593 40.7305 42.4438 40.96 42.4438C41.1895 42.4438 41.4096 42.3593 41.5719 42.209C41.7341 42.0587 41.8253 41.8549 41.8253 41.6423V39.238C41.8253 39.0254 41.7341 38.8215 41.5719 38.6712C41.4096 38.5209 41.1895 38.4365 40.96 38.4365ZM53.0746 29.6205H50.4786C50.2491 29.6205 50.029 29.7049 49.8668 29.8552C49.7045 30.0055 49.6133 30.2094 49.6133 30.422C49.6133 30.6345 49.7045 30.8384 49.8668 30.9887C50.029 31.139 50.2491 31.2234 50.4786 31.2234H53.0746C53.3041 31.2234 53.5243 31.139 53.6865 30.9887C53.8488 30.8384 53.94 30.6345 53.94 30.422C53.94 30.2094 53.8488 30.0055 53.6865 29.8552C53.5243 29.7049 53.3041 29.6205 53.0746 29.6205Z" fill="white"/>
<g id="Group">
<path id="Vector_2" d="M62.0093 28.9522C61.5348 30.3974 60.6642 31.7041 59.4824 32.745C58.3006 33.786 56.8479 34.5257 55.2657 34.8922C53.6836 35.2587 52.0259 35.2395 50.4541 34.8363C48.8824 34.4332 47.4502 33.6599 46.2969 32.5918C45.1437 31.5237 44.3088 30.1972 43.8735 28.7415C43.4383 27.2858 43.4175 25.7505 43.8132 24.2851C44.2089 22.8197 45.0076 21.4742 46.1315 20.3797C47.2555 19.2851 48.6663 18.4788 50.2266 18.0393C49.7319 19.5554 49.6905 21.1674 50.1069 22.7036C50.5233 24.2397 51.3818 25.6425 52.591 26.7624C53.8002 27.8824 55.3147 28.6775 56.9733 29.0631C58.6319 29.4487 60.3724 29.4104 62.0093 28.9522Z" fill="#383C40"/>
<path id="Vector_3" d="M62.565 28.4366C62.4641 28.3429 62.3375 28.2764 62.1988 28.2443C62.0602 28.2122 61.9147 28.2157 61.7781 28.2544C60.2775 28.6745 58.682 28.7098 57.1615 28.3563C55.641 28.0029 54.2526 27.274 53.1441 26.2473C52.0356 25.2207 51.2486 23.9347 50.867 22.5265C50.4854 21.1183 50.5234 19.6405 50.9771 18.2507C51.0192 18.1241 51.0232 17.9892 50.9887 17.8606C50.9543 17.732 50.8826 17.6145 50.7814 17.5209C50.6803 17.4272 50.5534 17.3608 50.4146 17.3288C50.2757 17.2969 50.1301 17.3007 49.9934 17.3396C47.9188 17.9282 46.0975 19.1079 44.7886 20.7106C43.644 22.1181 42.9458 23.7933 42.7725 25.5481C42.5992 27.3028 42.9576 29.0676 43.8075 30.644C44.6574 32.2205 45.9651 33.5463 47.5837 34.4723C49.2022 35.3984 51.0675 35.8881 52.97 35.8865C55.1896 35.8928 57.3501 35.2245 59.1201 33.9842C60.8506 32.7719 62.1243 31.0851 62.7598 29.1636C62.8014 29.0375 62.8053 28.9032 62.771 28.7752C62.7367 28.6471 62.6655 28.5301 62.565 28.4366ZM58.1738 32.8198C56.507 33.9826 54.4427 34.5486 52.3611 34.4136C50.2794 34.2786 48.3205 33.4517 46.8449 32.0851C45.3693 30.7185 44.4763 28.9043 44.3304 26.9763C44.1845 25.0483 44.7954 23.1364 46.0507 21.5926C46.8686 20.5923 47.9259 19.7814 49.1395 19.2238C49.0704 19.6731 49.0356 20.1265 49.0353 20.5804C49.0381 23.0925 50.1169 25.501 52.0349 27.2774C53.9528 29.0538 56.5533 30.0529 59.2657 30.0556C59.7568 30.0554 60.2472 30.0232 60.7334 29.959C60.1307 31.0832 59.2546 32.0625 58.1738 32.8198Z" fill="white"/>
</g>
<path id="Vector_4" d="M53.1934 10.7813C53.2562 10.8743 53.2677 10.9918 53.2255 11.1077C53.1833 11.2236 53.0908 11.3286 52.9683 11.3995C52.8458 11.4704 52.7034 11.5014 52.5724 11.4856C52.4414 11.4699 52.3325 11.4088 52.2697 11.3157C51.1912 9.72197 49.5152 8.52435 47.4536 7.87407C45.3919 7.2238 43.0369 7.15004 40.686 7.66209C38.335 8.17415 36.0935 9.24906 34.2443 10.7511C32.3951 12.2532 31.0213 14.1151 30.2962 16.1017L28.63 20.6038L34.8991 16.976C35.0216 16.9051 35.164 16.8741 35.295 16.8898C35.426 16.9055 35.5349 16.9667 35.5977 17.0597C35.6605 17.1528 35.672 17.2703 35.6298 17.3862C35.5876 17.5021 35.4951 17.6071 35.3726 17.678L27.9837 21.9539C27.8612 22.0247 27.7188 22.0557 27.5878 22.04C27.4568 22.0243 27.3479 21.9632 27.2851 21.8701L23.4968 16.2545C23.434 16.1615 23.4224 16.044 23.4646 15.9281C23.5068 15.8122 23.5993 15.7072 23.7218 15.6363C23.8443 15.5654 23.9867 15.5344 24.1177 15.5501C24.2487 15.5659 24.3576 15.627 24.4204 15.7201L27.6399 20.4924L29.2995 15.9806C30.0867 13.8194 31.5802 11.7935 33.5914 10.1592C35.6026 8.52493 38.0411 7.3556 40.5986 6.79909C43.156 6.24257 45.7176 6.32386 47.9595 7.03268C50.2013 7.74149 52.0227 9.046 53.1934 10.7813Z" fill="white"/>
<path id="Vector_5" d="M36.4824 46.0925C36.4181 46.0003 36.4046 45.883 36.4449 45.7665C36.4852 45.65 36.576 45.5438 36.6974 45.4712C36.8187 45.3986 36.9606 45.3656 37.0918 45.3795C37.2231 45.3934 37.3329 45.453 37.3972 45.5452C38.5016 47.1237 40.1968 48.2979 42.2688 48.9193C44.3408 49.5408 46.6967 49.5817 49.039 49.0369C51.3814 48.4922 53.6053 47.3861 55.4298 45.8584C57.2543 44.3308 58.5978 42.4499 59.2905 40.4534L60.8833 35.9286L54.6739 39.6434C54.5526 39.716 54.4107 39.749 54.2794 39.7351C54.1482 39.7212 54.0383 39.6616 53.974 39.5694C53.9097 39.4772 53.8963 39.36 53.9366 39.2435C53.9769 39.1269 54.0677 39.0207 54.189 38.9481L61.5076 34.5697C61.6289 34.4971 61.7708 34.4642 61.9021 34.478C62.0333 34.4919 62.1432 34.5515 62.2075 34.6437L66.0867 40.2058C66.151 40.298 66.1644 40.4153 66.1241 40.5318C66.0838 40.6483 65.993 40.7545 65.8717 40.8271C65.7504 40.8997 65.6085 40.9327 65.4772 40.9188C65.346 40.9049 65.2361 40.8453 65.1718 40.7531L61.8751 36.0262L60.289 40.5606C59.5371 42.7326 58.0766 44.779 56.0922 46.4412C54.1078 48.1033 51.6886 49.3065 49.1405 49.8986C46.5923 50.4907 44.0297 50.4452 41.7766 49.7677C39.5235 49.0902 37.6811 47.8112 36.4824 46.0925Z" fill="white"/>
</g>
<defs>
<filter id="filter0_dd_3_678" x="0" y="-11" width="89" height="89" filterUnits="userSpaceOnUse" color-interpolation-filters="sRGB">
<feFlood flood-opacity="0" result="BackgroundImageFix"/>
<feColorMatrix in="SourceAlpha" type="matrix" values="0 0 0 0 0 0 0 0 0 0 0 0 0 0 0 0 0 0 127 0" result="hardAlpha"/>
<feOffset dx="4" dy="4"/>
<feGaussianBlur stdDeviation="5.5"/>
<feComposite in2="hardAlpha" operator="out"/>
<feColorMatrix type="matrix" values="0 0 0 0 0 0 0 0 0 0 0 0 0 0 0 0 0 0 0.43 0"/>
<feBlend mode="normal" in2="BackgroundImageFix" result="effect1_dropShadow_3_678"/>
<feColorMatrix in="SourceAlpha" type="matrix" values="0 0 0 0 0 0 0 0 0 0 0 0 0 0 0 0 0 0 127 0" result="hardAlpha"/>
<feOffset dx="-4" dy="-4"/>
<feGaussianBlur stdDeviation="5.5"/>
<feComposite in2="hardAlpha" operator="out"/>
<feColorMatrix type="matrix" values="0 0 0 0 1 0 0 0 0 1 0 0 0 0 1 0 0 0 0.4 0"/>
<feBlend mode="normal" in2="effect1_dropShadow_3_678" result="effect2_dropShadow_3_678"/>
<feBlend mode="normal" in="SourceGraphic" in2="effect2_dropShadow_3_678" result="shape"/>
</filter>
</defs>
</svg>
